<svg width="29" height="28" viewBox="0 0 29 28" fill="none" xmlns="http://www.w3.org/2000/svg">
<g clip-path="url(#clip0_766_1106)">
<path fill-rule="evenodd" clip-rule="evenodd" d="M11.8281 1.62446L10.3958 0.0698716C12.5442 -0.209604 18.2385 0.157208 23.7407 3.8952C23.8106 4.41922 23.7931 4.92577 23.7931 4.92577L23.9329 5.0131C24.1949 5.37991 24.4918 6.04367 24.684 6.89957C24.8586 7.73799 24.911 8.69869 24.7014 9.60699C24.4918 10.5328 24.0901 11.3013 23.7058 11.8603C23.3041 12.4367 22.9372 12.7511 22.815 12.821L22.78 12.8384C22.0988 12.9607 21.1556 13.4672 20.7888 14.7249C19.6709 15.4236 17.7844 16.1747 15.2167 16.1747C12.946 16.1747 10.6403 15.5109 8.89357 14.2533C7.16431 12.9956 6.01147 11.1441 6.01147 8.68122C6.01147 6.74236 6.88484 5.22271 7.98527 4.10481C9.10318 2.96943 10.6403 2.06114 11.5137 1.76419L11.7233 1.69433L11.7058 1.67686L11.8281 1.62446ZM21.2953 4.68122C20.8586 5.17031 20.4569 5.39738 20.3346 5.46725C17.8019 4.89083 16.8936 3.47598 16.8936 3.47598C19.2866 3.45852 21.4351 4.06987 23.0071 5.10044C23.0246 5.10044 22.1687 4.8035 21.2953 4.68122Z" fill="black"/>
<path d="M9.53985 1.90393C4.1774 3.17904 0.125 8.1048 0.125 14.0087C0.125 21.6769 6.60535 28 14.5879 28C20.5617 28 25.5224 24.3493 28.125 19.476C24.7538 20.2795 20.7189 18.8996 20.5267 15.8603C20.5267 15.8428 20.5442 15.8079 20.5442 15.7904C19.2866 16.4367 17.4874 16.9956 15.2167 16.9956C12.8062 16.9956 10.3084 16.2969 8.42194 14.917C6.51801 13.5197 5.20797 11.4236 5.20797 8.68122C5.20797 6.46288 6.2036 4.75109 7.42631 3.52838C8.00273 2.95197 8.73635 2.41048 9.41758 1.99127C9.45251 1.95633 9.50491 1.9214 9.53985 1.90393Z" fill="black"/>
<path d="M23.8979 12.9258C24.1425 13.0306 24.2997 13.1528 24.3696 13.2402C24.5617 13.4498 25.0333 14.0437 24.4569 15.0044C25.6447 14.7948 27.4962 13.5895 27.6359 10.5328C27.7233 8.48908 26.6578 7.00437 25.2604 5.90393C25.3477 6.16594 25.4176 6.42795 25.4875 6.72489C25.6796 7.65066 25.7495 8.73362 25.5049 9.79913C25.2604 10.8472 24.8237 11.7031 24.3696 12.3319C24.2124 12.5415 24.0552 12.7511 23.8979 12.9258Z" fill="black"/>
</g>
<defs>
<clipPath id="clip0_766_1106">
<rect width="28" height="28" fill="white" transform="translate(0.125)"/>
</clipPath>
</defs>
</svg>
