<svg width="41" height="26" viewBox="0 0 41 26" fill="none" xmlns="http://www.w3.org/2000/svg">
<g clip-path="url(#clip0_766_1112)">
<path d="M21.4343 12.8982C21.4343 9.76908 21.4343 6.66536 21.4343 3.5362C21.4343 1.62818 22.4809 0.407045 24.3699 0.0508806C24.3954 0.0508806 24.4209 0.0254403 24.4465 0C24.6762 0 24.9059 0 25.1357 0C25.3144 0.127202 25.5441 0.101761 25.7228 0.178082C27.1267 0.610568 28.0457 1.85714 28.0457 3.30724C28.0457 6.51272 28.0457 9.69276 28.0457 12.8982C25.8504 12.8982 23.6296 12.8982 21.4343 12.8982Z" fill="black"/>
<path d="M0.375 10.4305C0.502632 10.3288 0.477106 10.1761 0.528159 10.0744C0.88553 9.13307 1.83001 8.59882 2.8766 8.72602C3.79555 8.85322 4.58687 9.69275 4.63792 10.6595C4.66345 11.3973 4.66345 12.1605 4.66345 12.9237C3.23397 12.9237 1.80448 12.9237 0.375 12.9237C0.375 12.0841 0.375 11.2446 0.375 10.4305Z" fill="black"/>
<path d="M4.63794 12.8982C6.37374 12.8982 8.10954 12.8728 9.84534 12.8982C10.1517 12.8982 10.2282 12.8219 10.2282 12.5166C10.2282 10.5068 10.2282 8.5225 10.2538 6.51272C10.2538 5.2407 11.1727 4.32485 12.398 4.32485C13.6233 4.32485 14.5677 5.26614 14.5677 6.51272C14.5677 8.5225 14.5933 10.5323 14.5677 12.5421C14.5677 12.8219 14.6443 12.8982 14.9251 12.8982C17.0949 12.8982 19.2646 12.8982 21.4344 12.8982C21.4344 14.5773 21.4344 16.2564 21.4344 17.9609C21.4344 19.5382 21.4344 21.09 21.4344 22.6673C21.4344 24.3973 20.0304 25.8982 18.3457 26C16.4312 26.1018 14.8485 24.8552 14.6188 23.0489C14.5933 22.7945 14.5677 22.5656 14.5677 22.3112C14.5677 19.2838 14.5677 16.2564 14.5677 13.229C14.5677 12.9746 14.5167 12.8982 14.2359 12.8982C13.0106 12.9237 11.7854 12.9237 10.5601 12.8982C10.2793 12.8982 10.2538 13 10.2538 13.229C10.2538 14.1703 10.2538 15.137 10.2538 16.0783C10.2282 17.7828 8.92639 19.0039 7.21611 18.9276C5.83768 18.8513 4.63794 17.6301 4.63794 16.2564C4.63794 15.137 4.63794 14.0176 4.63794 12.8982Z" fill="black"/>
<path d="M32.4108 12.8982C32.4108 10.5323 32.4108 8.16634 32.4363 5.82583C32.4363 4.8591 33.3552 4.07045 34.3763 4.07045C35.3974 4.09589 36.2397 4.90998 36.2397 5.95303C36.2397 8.1409 36.2653 10.3288 36.2397 12.5421C36.2397 12.8728 36.3418 12.9237 36.6226 12.9237C37.7713 12.8982 38.8945 12.9237 40.0432 12.8982C40.2984 12.8982 40.4006 12.9491 40.375 13.229C40.3495 13.8141 40.375 14.4247 40.375 15.0098C40.375 16.18 39.4561 17.1213 38.3074 17.1213C37.0821 17.1213 36.1376 16.2564 36.1121 15.0352C36.1121 14.4501 36.0866 13.8395 36.1121 13.2544C36.1121 13 36.0611 12.9237 35.7803 12.9237C34.6571 12.9237 33.5339 12.8982 32.4108 12.8982Z" fill="black"/>
<path d="M28.0712 12.8982C29.5262 12.8982 30.9557 12.8982 32.4107 12.8982C32.4107 15.4423 32.4107 17.9863 32.4107 20.5303C32.4107 21.7769 31.4407 22.7436 30.241 22.7436C29.0668 22.7436 28.0968 21.7769 28.0712 20.5812C28.0712 18.0117 28.0712 15.4677 28.0712 12.8982Z" fill="black"/>
</g>
<defs>
<clipPath id="clip0_766_1112">
<rect width="40" height="26" fill="white" transform="translate(0.375)"/>
</clipPath>
</defs>
</svg>
