<svg width="29" height="29" viewBox="0 0 29 29" fill="none" xmlns="http://www.w3.org/2000/svg">
<path d="M14.5 0.117676C6.50609 0.117676 0 6.37507 0 14.1177C0 21.8359 6.48087 28.1177 14.5 28.1177C22.5191 28.1177 29 21.8603 29 14.1177C29 6.39941 22.4939 0.117676 14.5 0.117676ZM25.1165 14.8725H18.3835C17.9296 17.0151 15.7861 18.4029 13.567 17.9646C11.3478 17.5264 9.91043 15.4568 10.3643 13.3142C10.8183 11.1716 12.9617 9.78376 15.1809 10.222C16.8704 10.5385 18.1565 11.8533 18.4339 13.509H25.1165C25.52 13.509 25.8226 13.8255 25.8226 14.1907C25.8226 14.5803 25.4948 14.8725 25.1165 14.8725Z" fill="black"/>
</svg>
