<svg width="120" height="24" viewBox="0 0 120 24" fill="none" xmlns="http://www.w3.org/2000/svg">
<path d="M11.9042 0.5C5.617 0.5 0.5 5.64 0.5 12C0.5 18.34 5.59717 23.5 11.9042 23.5C18.2112 23.5 23.3083 18.36 23.3083 12C23.3083 5.66 18.1913 0.5 11.9042 0.5ZM20.254 12.62H14.9585C14.6015 14.38 12.9157 15.52 11.1703 15.16C9.425 14.8 8.2945 13.1 8.6515 11.34C9.0085 9.58 10.6943 8.44 12.4397 8.8C13.7685 9.06 14.78 10.14 14.9982 11.5H20.254C20.5713 11.5 20.8093 11.76 20.8093 12.06C20.8093 12.38 20.5515 12.62 20.254 12.62ZM115.117 12.08C115.97 12.08 116.565 12.64 116.743 13.52H113.411C113.57 12.6 114.224 12.08 115.117 12.08ZM119.5 14.36C119.5 11.7 117.656 9.8 115.137 9.8C112.439 9.8 110.535 11.74 110.535 14.46C110.535 17.26 112.499 19.14 115.196 19.14C117.219 19.14 118.469 18.46 119.202 17.52L117.556 15.82C117.041 16.42 116.267 16.78 115.474 16.8C114.383 16.8 113.53 16.26 113.332 15.24H119.401C119.46 15.04 119.5 14.6 119.5 14.36ZM105.775 18.96H108.631V12.28H110.337V9.96H108.631V8.66C108.631 7.94 108.968 7.68 109.464 7.68C109.722 7.68 110.198 7.8 110.575 8.02L111.111 5.94C110.793 5.72 109.881 5.24 108.711 5.24C106.926 5.24 105.775 6.32 105.775 8.56V9.98H104.923V12.28H105.775V18.96ZM99.2898 16.58C98.1593 16.58 97.366 15.74 97.366 14.46C97.366 13.18 98.1792 12.32 99.2898 12.32C100.361 12.32 101.174 13.22 101.174 14.46C101.174 15.76 100.321 16.58 99.2898 16.58ZM98.6948 19.12C99.7658 19.12 100.579 18.76 101.154 18L101.194 18.02V18.96H103.911V9.96H101.055V10.9L101.015 10.92C100.4 10.2 99.4882 9.78 98.556 9.8C96.2553 9.8 94.4902 11.72 94.4902 14.48C94.4703 17.24 96.2553 19.12 98.6948 19.12ZM89.036 19.12C91.1978 19.12 93.796 18.02 93.796 14.94C93.796 12.42 92.0507 11.84 89.7698 10.94C88.3617 10.38 87.8857 10.06 87.9055 9.44C87.9055 8.82 88.3617 8.42 89.1153 8.42C89.8492 8.42 90.6425 8.76 91.7532 9.66L93.4588 7.42C92.2292 6.34 90.6623 5.7 88.9765 5.72C86.5767 5.76 84.7322 7.4 84.7322 9.56C84.7322 12.14 86.6957 13.08 88.679 13.76C90.1467 14.26 90.6028 14.56 90.6028 15.28C90.6028 15.86 90.1665 16.38 89.1352 16.38C88.2427 16.38 87.0527 15.92 86.0808 14.84L84.2958 17.02C85.6643 18.48 87.3898 19.12 89.036 19.12ZM76.3228 19.12C78.7623 19.12 79.9523 17.9 79.9523 16.24C79.9523 14.48 78.8813 13.96 76.898 13.28C76.0055 12.96 75.6683 12.76 75.6683 12.48C75.6683 12.14 76.0452 11.98 76.3823 11.98C76.9773 11.98 77.7508 12.3 78.3657 12.92L79.7143 10.92C78.683 10.14 77.6913 9.8 76.3427 9.8C74.4783 9.8 73.0107 10.84 73.0107 12.68C73.0107 14.4 74.3197 15.14 75.827 15.6C76.9377 15.94 77.2153 16.14 77.2153 16.42C77.2153 16.76 76.9178 16.96 76.3625 16.96C75.5493 16.96 74.7758 16.62 74.0222 15.94L72.6933 17.8C73.685 18.68 74.9147 19.12 76.3228 19.12ZM68.8457 18.96H71.6818V9.96H68.8258L68.8457 18.96ZM70.2737 8.84C71.2653 8.84 71.9793 8.12 71.9793 7.18C71.9793 6.28 71.2455 5.56 70.2737 5.56C69.282 5.56 68.568 6.3 68.568 7.18C68.568 8.12 69.282 8.84 70.2737 8.84ZM64.0262 19.12C66.4657 19.12 67.6557 17.9 67.6557 16.24C67.6557 14.48 66.5847 13.96 64.6013 13.28C63.7088 12.96 63.3717 12.76 63.3717 12.48C63.3717 12.14 63.7485 11.98 64.0857 11.98C64.6807 11.98 65.4542 12.3 66.069 12.92L67.4177 10.92C66.3863 10.14 65.3947 9.8 64.046 9.8C62.1817 9.8 60.714 10.84 60.714 12.68C60.714 14.4 62.023 15.14 63.5303 15.6C64.641 15.94 64.9187 16.14 64.9187 16.42C64.9187 16.76 64.6212 16.96 64.0658 16.96C63.2527 16.96 62.4792 16.62 61.7255 15.94L60.3967 17.8C61.3883 18.68 62.6378 19.12 64.0262 19.12ZM55.121 16.58C53.9905 16.58 53.1773 15.66 53.1773 14.46C53.1773 13.22 53.9707 12.34 55.121 12.34C56.2317 12.34 57.0448 13.2 57.0448 14.46C57.0448 15.7 56.192 16.58 55.121 16.58ZM55.121 19.12C57.9373 19.12 59.9405 17.22 59.9405 14.46C59.9405 11.68 57.9373 9.78 55.121 9.78C52.2452 9.78 50.2817 11.72 50.2817 14.46C50.2817 17.18 52.2253 19.12 55.121 19.12ZM40.4642 18.96H43.3003V14.44C43.3003 13.04 43.9548 12.36 44.9465 12.36C45.8787 12.36 46.3745 12.78 46.3745 14.28V18.98H49.2107V13.58C49.2107 10.72 47.862 9.8 46.0175 9.8C44.9862 9.78 44.0143 10.22 43.34 11.02H43.3003V9.98H40.4642V18.96ZM33.8002 19.1C35.8033 19.1 37.7668 18.42 38.9568 17.5V11.64H33.5225V14.18H36.0413V15.72C35.3472 16.1 34.5737 16.3 33.8002 16.3C31.5987 16.3 30.2897 14.58 30.2897 12.46C30.2897 10.04 31.8168 8.62 33.6613 8.62C34.8315 8.62 35.9422 9.08 36.7553 9.9L38.8973 8.06C37.5685 6.52 35.5257 5.72 33.6415 5.72C29.4963 5.72 27.0767 8.66 27.0767 12.46C27.0965 16.7 30.0517 19.1 33.8002 19.1Z" fill="black"/>
</svg>
