<svg width="29" height="28" viewBox="0 0 29 28" fill="none" xmlns="http://www.w3.org/2000/svg">
<path d="M24.0033 0H11.1936V17.283H28.4999V4.45283C28.4999 2 26.4595 0 24.0033 0Z" fill="black"/>
<path d="M7.18826 0H4.99663C2.5027 0 0.5 2 0.5 4.45283V6.64151H7.18826V0Z" fill="black"/>
<path d="M0.5 10.6793H7.18826V17.3585H0.5V10.6793Z" fill="black"/>
<path d="M21.8495 27.9623H24.0411C26.4973 27.9623 28.5 25.9623 28.5 23.5094V21.3585H21.8495V27.9623Z" fill="black"/>
<path d="M11.1936 21.3208H17.8819V28H11.1936V21.3208Z" fill="black"/>
<path d="M0.5 21.3208V23.5094C0.5 25.9623 2.5027 27.9623 4.95884 27.9623H7.15047V21.3208H0.5Z" fill="black"/>
</svg>
