<svg width="296" height="166" viewBox="0 0 296 166" fill="none" xmlns="http://www.w3.org/2000/svg">
<g clip-path="url(#clip0_766_969)">
<path d="M0.5 20C0.5 8.9543 9.45431 0 20.5 0H275.5C286.546 0 295.5 8.9543 295.5 20V166H0.5V20Z" fill="url(#paint0_linear_766_969)"/>
<path d="M33.4462 41.6492L30.8813 43.1106L28.433 44.5146L26.5385 37.6376L28.9868 34.8295M26.3053 36.7494L23.4199 26.2906L28.5496 34.1705L26.3053 36.7494ZM22.9827 41.6779L25.9264 38.2967L27.5878 44.2854L25.4892 43.0819L22.9827 41.6779ZM29.5115 34.2278L33.6211 29.5285V40.5031L29.5115 34.2278ZM34.3789 29.5285L38.4885 34.2278L34.3789 40.5031V29.5285ZM38.984 34.8295L41.4323 37.6376L39.5378 44.5146L37.0604 43.1106L34.4955 41.6492L38.984 34.8295ZM42.0444 38.3253L44.9882 41.7065L42.4816 43.1392L40.3831 44.3141L42.0444 38.3253ZM45.1922 40.7896L42.2776 37.4657L45.1922 26.8923V40.7896ZM41.6946 36.7494L39.4212 34.1705L44.5801 26.2906L41.6946 36.7494ZM38.8966 33.5687L34.6412 28.6689L44.6384 24.8292L38.8966 33.5687ZM34.1166 28.0671L34 28.1111L33.8834 28.0671L22.0208 23.5111V41.9931L25.1103 43.741L28.1999 45.4889L31.2894 43.741L34 42.1937L39.8001 45.4889L42.8896 43.741L45.9792 41.9931V23.5111L34.1166 28.0671ZM33.3588 28.6689L29.0743 33.5687L23.3616 24.8292L33.3588 28.6689ZM25.6933 37.4371L22.7786 40.7609V26.8637L25.6933 37.4371Z" fill="white"/>
<path d="M33.4462 41.6492L30.8813 43.1106L28.433 44.5146L26.5385 37.6376L28.9868 34.8295M26.3053 36.7494L23.4199 26.2906L28.5496 34.1705L26.3053 36.7494ZM22.9827 41.6779L25.9264 38.2967L27.5878 44.2854L25.4892 43.0819L22.9827 41.6779ZM29.5115 34.2278L33.6211 29.5285V40.5031L29.5115 34.2278ZM34.3789 29.5285L38.4885 34.2278L34.3789 40.5031V29.5285ZM38.984 34.8295L41.4323 37.6376L39.5378 44.5146L37.0604 43.1106L34.4955 41.6492L38.984 34.8295ZM42.0444 38.3253L44.9882 41.7065L42.4816 43.1392L40.3831 44.3141L42.0444 38.3253ZM45.1922 40.7896L42.2776 37.4657L45.1922 26.8923V40.7896ZM41.6946 36.7494L39.4212 34.1705L44.5801 26.2906L41.6946 36.7494ZM38.8966 33.5687L34.6412 28.6689L44.6384 24.8292L38.8966 33.5687ZM34.1166 28.0671L34 28.1111L33.8834 28.0671L22.0208 23.5111V41.9931L25.1103 43.741L28.1999 45.4889L31.2894 43.741L34 42.1937L39.8001 45.4889L42.8896 43.741L45.9792 41.9931V23.5111L34.1166 28.0671ZM33.3588 28.6689L29.0743 33.5687L23.3616 24.8292L33.3588 28.6689ZM25.6933 37.4371L22.7786 40.7609V26.8637L25.6933 37.4371Z" stroke="white"/>
<path d="M230.877 153.165C231.116 149.619 233.869 146.928 237.22 146.683C237.818 146.683 238.416 146.561 239.015 146.561C238.416 146.439 237.818 146.439 237.22 146.439C233.749 146.194 231.116 143.381 230.877 139.957C230.877 139.345 230.757 138.734 230.757 138.122C230.638 138.734 230.638 139.345 230.638 139.957C230.398 143.504 227.646 146.194 224.295 146.439C223.697 146.439 223.098 146.561 222.5 146.561C223.098 146.561 223.697 146.561 224.295 146.683C227.766 146.928 230.398 149.741 230.638 153.165C230.638 153.777 230.757 154.388 230.757 155C230.877 154.388 230.877 153.777 230.877 153.165Z" fill="white"/>
<path d="M259.12 153.165C259.359 149.619 262.111 146.928 265.462 146.683C266.061 146.683 266.659 146.561 267.257 146.561C266.659 146.439 266.061 146.439 265.462 146.439C261.992 146.194 259.359 143.381 259.12 139.957C259.12 139.345 259 138.734 259 138.122C258.88 138.734 258.88 139.345 258.88 139.957C258.641 143.504 255.889 146.194 252.538 146.439C251.939 146.439 251.341 146.561 250.743 146.561C251.221 146.561 251.82 146.561 252.418 146.683C255.889 146.928 258.521 149.741 258.761 153.165C258.761 153.777 258.88 154.388 258.88 155C259 154.388 259.12 153.777 259.12 153.165Z" fill="white"/>
<path d="M287.362 153.165C287.602 149.619 290.234 146.928 293.705 146.683C294.303 146.561 294.902 146.561 295.5 146.439C294.902 146.439 294.303 146.439 293.705 146.317C290.234 146.072 287.602 143.381 287.362 139.835C287.243 139.223 287.243 138.612 287.243 138C287.123 138.612 287.123 139.223 287.003 139.835C286.764 143.381 284.011 146.072 280.661 146.317C280.062 146.317 279.464 146.439 278.866 146.439C279.464 146.561 280.062 146.561 280.661 146.561C284.131 146.806 286.764 149.619 287.003 153.043C287.003 153.655 287.123 154.266 287.123 154.878C287.243 154.388 287.243 153.777 287.362 153.165Z" fill="white"/>
<ellipse cx="110.12" cy="121.62" rx="56" ry="56" transform="rotate(-146.448 110.12 121.62)" fill="url(#paint1_linear_766_969)"/>
<path d="M147.911 22L149.599 40.3L162.306 28.7L151.999 43L168.259 44.9L151.999 46.8L162.306 61.1L149.599 49.5L147.911 67.8L146.223 49.5L133.517 61.1L143.824 46.8L127.563 44.9L143.824 43L133.517 28.7L146.223 40.3L147.911 22Z" fill="url(#paint2_linear_766_969)"/>
<g clip-path="url(#clip1_766_969)">
<g opacity="0.9">
<path d="M257.6 24.1C268.314 24.1 277 15.4143 277 4.69999C277 -6.01433 268.314 -14.7 257.6 -14.7C246.886 -14.7 238.2 -6.01433 238.2 4.69999C238.2 15.4143 246.886 24.1 257.6 24.1Z" stroke="white" stroke-width="0.6" stroke-miterlimit="10"/>
<path d="M278.151 7.86518C278.186 -3.51188 268.991 -12.7633 257.614 -12.7985C246.237 -12.8336 236.986 -3.63917 236.951 7.73789C236.916 19.115 246.11 28.3664 257.487 28.4015C268.864 28.4367 278.116 19.2422 278.151 7.86518Z" stroke="white" stroke-width="0.6" stroke-miterlimit="10"/>
<path d="M257.639 32.9C269.735 32.8783 279.522 23.0557 279.5 10.9607C279.478 -1.13437 269.656 -10.9217 257.561 -10.9C245.466 -10.8783 235.678 -1.05569 235.7 11.0393C235.722 23.1344 245.544 32.9217 257.639 32.9Z" stroke="white" stroke-width="0.6" stroke-miterlimit="10"/>
<path d="M257.648 37.5001C270.571 37.4738 281.026 26.976 281 14.0525C280.974 1.12905 270.476 -9.3262 257.553 -9.29994C244.629 -9.27367 234.174 1.22416 234.2 14.1476C234.226 27.0711 244.724 37.5263 257.648 37.5001Z" stroke="white" stroke-width="0.6" stroke-miterlimit="10"/>
<path d="M257.6 42.3C271.462 42.3 282.7 31.0623 282.7 17.2C282.7 3.33763 271.462 -7.90002 257.6 -7.90002C243.738 -7.90002 232.5 3.33763 232.5 17.2C232.5 31.0623 243.738 42.3 257.6 42.3Z" stroke="white" stroke-width="0.6" stroke-miterlimit="10"/>
<path d="M257.6 47.2C272.401 47.2 284.4 35.2012 284.4 20.4C284.4 5.59875 272.401 -6.40002 257.6 -6.40002C242.799 -6.40002 230.8 5.59875 230.8 20.4C230.8 35.2012 242.799 47.2 257.6 47.2Z" stroke="white" stroke-width="0.6" stroke-miterlimit="10"/>
<path d="M257.6 52.1C273.395 52.1 286.2 39.2953 286.2 23.5C286.2 7.70462 273.395 -5.10004 257.6 -5.10004C241.805 -5.10004 229 7.70462 229 23.5C229 39.2953 241.805 52.1 257.6 52.1Z" stroke="white" stroke-width="0.6" stroke-miterlimit="10"/>
<path d="M288.102 26.7106C288.135 9.86592 274.507 -3.81635 257.662 -3.84959C240.818 -3.88284 227.135 9.74553 227.102 26.5902C227.069 43.4349 240.697 57.1172 257.542 57.1504C274.386 57.1837 288.069 43.5553 288.102 26.7106Z" stroke="white" stroke-width="0.6" stroke-miterlimit="10"/>
<path d="M285.7 45.9C276.8 61.4 257 66.8 241.5 57.9C226 49 220.6 29.2 229.5 13.7C238.4 -1.80001 258.2 -7.20001 273.7 1.69999C289.2 10.6 294.6 30.4 285.7 45.9Z" stroke="white" stroke-width="0.6" stroke-miterlimit="10"/>
<path d="M257.6 67.4C276.543 67.4 291.9 51.9986 291.9 33C291.9 14.0014 276.543 -1.40002 257.6 -1.40002C238.657 -1.40002 223.3 14.0014 223.3 33C223.3 51.9986 238.657 67.4 257.6 67.4Z" stroke="white" stroke-width="0.6" stroke-miterlimit="10"/>
<path d="M257.6 72.5C277.703 72.5 294 56.2032 294 36.1C294 15.9968 277.703 -0.299988 257.6 -0.299988C237.497 -0.299988 221.2 15.9968 221.2 36.1C221.2 56.2032 237.497 72.5 257.6 72.5Z" stroke="white" stroke-width="0.6" stroke-miterlimit="10"/>
<path d="M257.6 77.6C278.808 77.6 296 60.4077 296 39.2C296 17.9923 278.808 0.799988 257.6 0.799988C236.392 0.799988 219.2 17.9923 219.2 39.2C219.2 60.4077 236.392 77.6 257.6 77.6Z" stroke="white" stroke-width="0.6" stroke-miterlimit="10"/>
<path d="M257.6 82.9C279.968 82.9 298.1 64.7675 298.1 42.4C298.1 20.0324 279.968 1.89996 257.6 1.89996C235.232 1.89996 217.1 20.0324 217.1 42.4C217.1 64.7675 235.232 82.9 257.6 82.9Z" stroke="white" stroke-width="0.6" stroke-miterlimit="10"/>
<path d="M257.6 88.1C281.072 88.1 300.1 69.0273 300.1 45.5C300.1 21.9726 281.072 2.89996 257.6 2.89996C234.128 2.89996 215.1 21.9726 215.1 45.5C215.1 69.0273 234.128 88.1 257.6 88.1Z" stroke="white" stroke-width="0.6" stroke-miterlimit="10"/>
<path d="M257.6 93.4C282.287 93.4 302.3 73.3871 302.3 48.7C302.3 24.0129 282.287 4 257.6 4C232.913 4 212.9 24.0129 212.9 48.7C212.9 73.3871 232.913 93.4 257.6 93.4Z" stroke="white" stroke-width="0.6" stroke-miterlimit="10"/>
<path d="M257.6 98.6C283.447 98.6 304.4 77.6469 304.4 51.8C304.4 25.9531 283.447 5 257.6 5C231.753 5 210.8 25.9531 210.8 51.8C210.8 77.6469 231.753 98.6 257.6 98.6Z" stroke="white" stroke-width="0.6" stroke-miterlimit="10"/>
<path d="M257.6 103.9C284.607 103.9 306.5 81.9619 306.5 54.9C306.5 27.838 284.607 5.89996 257.6 5.89996C230.593 5.89996 208.7 27.838 208.7 54.9C208.7 81.9619 230.593 103.9 257.6 103.9Z" stroke="white" stroke-width="0.6" stroke-miterlimit="10"/>
<path d="M257.6 109.2C285.822 109.2 308.7 86.3217 308.7 58.1C308.7 29.8782 285.822 7 257.6 7C229.378 7 206.5 29.8782 206.5 58.1C206.5 86.3217 229.378 109.2 257.6 109.2Z" stroke="white" stroke-width="0.6" stroke-miterlimit="10"/>
<path d="M257.6 114.5C286.982 114.5 310.8 90.6367 310.8 61.2C310.8 31.7632 286.982 7.89996 257.6 7.89996C228.218 7.89996 204.4 31.7632 204.4 61.2C204.4 90.6367 228.218 114.5 257.6 114.5Z" stroke="white" stroke-width="0.6" stroke-miterlimit="10"/>
<path d="M257.6 119.8C288.197 119.8 313 94.9966 313 64.4C313 33.8034 288.197 9 257.6 9C227.003 9 202.2 33.8034 202.2 64.4C202.2 94.9966 227.003 119.8 257.6 119.8Z" stroke="white" stroke-width="0.6" stroke-miterlimit="10"/>
<path d="M257.6 125.1C289.412 125.1 315.2 99.3116 315.2 67.5C315.2 35.6884 289.412 9.89996 257.6 9.89996C225.788 9.89996 200 35.6884 200 67.5C200 99.3116 225.788 125.1 257.6 125.1Z" stroke="white" stroke-width="0.6" stroke-miterlimit="10"/>
<path d="M257.6 130.5C290.627 130.5 317.4 103.727 317.4 70.7C317.4 37.6733 290.627 10.9 257.6 10.9C224.573 10.9 197.8 37.6733 197.8 70.7C197.8 103.727 224.573 130.5 257.6 130.5Z" stroke="white" stroke-width="0.6" stroke-miterlimit="10"/>
</g>
</g>
</g>
<defs>
<linearGradient id="paint0_linear_766_969" x1="158.663" y1="166" x2="155.579" y2="0.0573024" gradientUnits="userSpaceOnUse">
<stop stop-color="#96D7CB"/>
<stop offset="1" stop-color="#D6ECE8"/>
</linearGradient>
<linearGradient id="paint1_linear_766_969" x1="61.2314" y1="168.229" x2="181.184" y2="140.484" gradientUnits="userSpaceOnUse">
<stop stop-color="#11B99B"/>
<stop offset="1" stop-color="#A7D7CE"/>
</linearGradient>
<linearGradient id="paint2_linear_766_969" x1="130.147" y1="63.9596" x2="174.203" y2="54.9051" gradientUnits="userSpaceOnUse">
<stop stop-color="#11B99B"/>
<stop offset="1" stop-color="#A7D7CE"/>
</linearGradient>
<clipPath id="clip0_766_969">
<path d="M0.5 20C0.5 8.9543 9.45431 0 20.5 0H275.5C286.546 0 295.5 8.9543 295.5 20V166H0.5V20Z" fill="white"/>
</clipPath>
<clipPath id="clip1_766_969">
<rect width="120.2" height="145.8" fill="white" transform="translate(197.5 -15)"/>
</clipPath>
</defs>
</svg>
