<svg width="296" height="166" viewBox="0 0 296 166" fill="none" xmlns="http://www.w3.org/2000/svg">
<g clip-path="url(#clip0_766_1013)">
<path d="M0.5 20C0.5 8.9543 9.45431 0 20.5 0H275.5C286.546 0 295.5 8.9543 295.5 20V166H0.5V20Z" fill="url(#paint0_linear_766_1013)"/>
<path d="M33.4462 41.6492L30.8813 43.1106L28.433 44.5146L26.5385 37.6376L28.9868 34.8295M26.3053 36.7494L23.4198 26.2906L28.5496 34.1705L26.3053 36.7494ZM22.9826 41.6779L25.9264 38.2967L27.5878 44.2854L25.4892 43.0819L22.9826 41.6779ZM29.5114 34.2278L33.6211 29.5285V40.5031L29.5114 34.2278ZM34.3789 29.5285L38.4885 34.2278L34.3789 40.5031V29.5285ZM38.984 34.8295L41.4323 37.6376L39.5378 44.5146L37.0603 43.1106L34.4955 41.6492L38.984 34.8295ZM42.0444 38.3253L44.9882 41.7065L42.4816 43.1392L40.383 44.3141L42.0444 38.3253ZM45.1922 40.7896L42.2776 37.4657L45.1922 26.8923V40.7896ZM41.6946 36.7494L39.4212 34.1705L44.5801 26.2906L41.6946 36.7494ZM38.8966 33.5687L34.6412 28.6689L44.6384 24.8292L38.8966 33.5687ZM34.1166 28.0671L34 28.1111L33.8834 28.0671L22.0208 23.5111V41.9931L25.1103 43.741L28.1998 45.4889L31.2894 43.741L34 42.1937L39.8001 45.4889L42.8896 43.741L45.9791 41.9931V23.5111L34.1166 28.0671ZM33.3588 28.6689L29.0742 33.5687L23.3615 24.8292L33.3588 28.6689ZM25.6933 37.4371L22.7786 40.7609V26.8637L25.6933 37.4371Z" fill="white"/>
<path d="M33.4462 41.6492L30.8813 43.1106L28.433 44.5146L26.5385 37.6376L28.9868 34.8295M26.3053 36.7494L23.4198 26.2906L28.5496 34.1705L26.3053 36.7494ZM22.9826 41.6779L25.9264 38.2967L27.5878 44.2854L25.4892 43.0819L22.9826 41.6779ZM29.5114 34.2278L33.6211 29.5285V40.5031L29.5114 34.2278ZM34.3789 29.5285L38.4885 34.2278L34.3789 40.5031V29.5285ZM38.984 34.8295L41.4323 37.6376L39.5378 44.5146L37.0603 43.1106L34.4955 41.6492L38.984 34.8295ZM42.0444 38.3253L44.9882 41.7065L42.4816 43.1392L40.383 44.3141L42.0444 38.3253ZM45.1922 40.7896L42.2776 37.4657L45.1922 26.8923V40.7896ZM41.6946 36.7494L39.4212 34.1705L44.5801 26.2906L41.6946 36.7494ZM38.8966 33.5687L34.6412 28.6689L44.6384 24.8292L38.8966 33.5687ZM34.1166 28.0671L34 28.1111L33.8834 28.0671L22.0208 23.5111V41.9931L25.1103 43.741L28.1998 45.4889L31.2894 43.741L34 42.1937L39.8001 45.4889L42.8896 43.741L45.9791 41.9931V23.5111L34.1166 28.0671ZM33.3588 28.6689L29.0742 33.5687L23.3615 24.8292L33.3588 28.6689ZM25.6933 37.4371L22.7786 40.7609V26.8637L25.6933 37.4371Z" stroke="white"/>
<ellipse cx="162.12" cy="46.6202" rx="56" ry="56" transform="rotate(-146.448 162.12 46.6202)" fill="url(#paint1_linear_766_1013)"/>
<g opacity="0.9">
<path d="M269.528 119.791C279.279 108.818 269.04 79.5025 246.658 54.3139C224.277 29.1253 198.229 17.6018 188.478 28.5754C178.727 39.5491 188.967 68.8643 211.348 94.0529C233.729 119.241 259.778 130.765 269.528 119.791Z" stroke="white" stroke-miterlimit="10"/>
<path d="M264.309 125.702C274.059 114.728 263.82 85.4132 241.439 60.2246C219.057 35.0361 193.009 23.5126 183.258 34.4862C173.508 45.4598 183.747 74.7751 206.128 99.9637C228.51 125.152 254.558 136.676 264.309 125.702Z" stroke="white" stroke-miterlimit="10"/>
<path d="M272.138 116.907C281.889 105.933 271.649 76.6179 249.268 51.4293C226.887 26.2407 200.838 14.7172 191.088 25.6909C181.337 36.6645 191.576 65.9797 213.958 91.1683C236.339 116.357 262.387 127.88 272.138 116.907Z" stroke="white" stroke-miterlimit="10"/>
<path d="M277.357 110.996C287.108 100.022 276.869 70.7072 254.487 45.5186C232.106 20.3301 206.058 8.80658 196.307 19.7802C186.557 30.7538 196.796 60.0691 219.177 85.2577C241.559 110.446 267.607 121.97 277.357 110.996Z" stroke="white" stroke-miterlimit="10"/>
<path d="M280.03 108.041C289.781 97.0672 279.541 67.7519 257.16 42.5633C234.779 17.3747 208.73 5.85126 198.98 16.8249C189.229 27.7985 199.468 57.1138 221.85 82.3023C244.231 107.491 270.279 119.014 280.03 108.041Z" stroke="white" stroke-miterlimit="10"/>
<path d="M274.748 113.881C284.498 102.907 274.259 73.5919 251.878 48.4033C229.496 23.2147 203.448 11.6912 193.697 22.6649C183.947 33.6385 194.186 62.9537 216.567 88.1423C238.949 113.331 264.997 124.854 274.748 113.881Z" stroke="white" stroke-miterlimit="10"/>
<path d="M266.919 122.676C276.669 111.702 266.43 82.387 244.049 57.1985C221.667 32.0099 195.619 20.4864 185.868 31.46C176.118 42.4336 186.357 71.7489 208.738 96.9375C231.12 122.126 257.168 133.65 266.919 122.676Z" stroke="white" stroke-miterlimit="10"/>
<path d="M256.48 134.497C266.23 123.524 255.991 94.2083 233.61 69.0197C211.228 43.8312 185.18 32.3077 175.429 43.2813C165.679 54.2549 175.918 83.5702 198.299 108.759C220.681 133.947 246.729 145.471 256.48 134.497Z" stroke="white" stroke-miterlimit="10"/>
<path d="M261.699 128.587C271.45 117.613 261.21 88.2977 238.829 63.1092C216.448 37.9206 190.399 26.3971 180.649 37.3707C170.898 48.3444 181.137 77.6596 203.519 102.848C225.9 128.037 251.948 139.56 261.699 128.587Z" stroke="white" stroke-miterlimit="10"/>
<path d="M259.152 131.542C268.903 120.568 258.664 91.2529 236.282 66.0644C213.901 40.8758 187.853 29.3523 178.102 40.3259C168.351 51.2996 178.59 80.6148 200.972 105.803C223.353 130.992 249.401 142.515 259.152 131.542Z" stroke="white" stroke-miterlimit="10"/>
<path d="M282.577 105.085C292.328 94.1118 282.088 64.7965 259.707 39.6079C237.326 14.4194 211.277 2.89588 201.527 13.8695C191.776 24.8431 202.015 54.1584 224.397 79.347C246.778 104.536 272.826 116.059 282.577 105.085Z" stroke="white" stroke-miterlimit="10"/>
</g>
<path d="M173.679 111L175.367 129.3L188.074 117.7L177.767 132L194.027 133.9L177.767 135.8L188.074 150.1L175.367 138.5L173.679 156.8L171.991 138.5L159.285 150.1L169.592 135.8L153.331 133.9L169.592 132L159.285 117.7L171.991 129.3L173.679 111Z" fill="url(#paint2_linear_766_1013)"/>
<path d="M19.877 153.165C20.1164 149.619 22.8689 146.928 26.2197 146.683C26.818 146.683 27.4164 146.561 28.0148 146.561C27.4164 146.439 26.818 146.439 26.2197 146.439C22.7492 146.194 20.1164 143.381 19.877 139.957C19.877 139.345 19.7574 138.734 19.7574 138.122C19.6377 138.734 19.6377 139.345 19.6377 139.957C19.3984 143.504 16.6459 146.194 13.2951 146.439C12.6967 146.439 12.0984 146.561 11.5 146.561C12.0984 146.561 12.6967 146.561 13.2951 146.683C16.7656 146.928 19.3984 149.741 19.6377 153.165C19.6377 153.777 19.7574 154.388 19.7574 155C19.8771 154.388 19.877 153.777 19.877 153.165Z" fill="white"/>
<path d="M48.1197 153.165C48.359 149.619 51.1115 146.928 54.4623 146.683C55.0607 146.683 55.659 146.561 56.2574 146.561C55.659 146.439 55.0607 146.439 54.4623 146.439C50.9918 146.194 48.359 143.381 48.1197 139.957C48.1197 139.345 48 138.734 48 138.122C47.8803 138.734 47.8803 139.345 47.8803 139.957C47.641 143.504 44.8885 146.194 41.5377 146.439C40.9393 146.439 40.341 146.561 39.7426 146.561C40.2213 146.561 40.8197 146.561 41.418 146.683C44.8885 146.928 47.5213 149.741 47.7607 153.165C47.7607 153.777 47.8803 154.388 47.8803 155C48 154.388 48.1197 153.777 48.1197 153.165Z" fill="white"/>
<path d="M76.3623 153.165C76.6016 149.619 79.2344 146.928 82.7049 146.683C83.3033 146.561 83.9016 146.561 84.5 146.439C83.9016 146.439 83.3033 146.439 82.7049 146.317C79.2344 146.072 76.6016 143.381 76.3623 139.835C76.2426 139.223 76.2426 138.612 76.2426 138C76.123 138.612 76.123 139.223 76.0033 139.835C75.7639 143.381 73.0115 146.072 69.6607 146.317C69.0623 146.317 68.4639 146.439 67.8656 146.439C68.4639 146.561 69.0623 146.561 69.6607 146.561C73.1311 146.806 75.7639 149.619 76.0033 153.043C76.0033 153.655 76.1229 154.266 76.1229 154.878C76.2426 154.388 76.2426 153.777 76.3623 153.165Z" fill="white"/>
</g>
<defs>
<linearGradient id="paint0_linear_766_1013" x1="148" y1="174" x2="144.863" y2="0.0565608" gradientUnits="userSpaceOnUse">
<stop stop-color="#F79D97"/>
<stop offset="1" stop-color="#ECD1CF"/>
</linearGradient>
<linearGradient id="paint1_linear_766_1013" x1="112.698" y1="93.2289" x2="221.966" y2="69.059" gradientUnits="userSpaceOnUse">
<stop stop-color="#EA6A61"/>
<stop offset="1" stop-color="#EEA19C"/>
</linearGradient>
<linearGradient id="paint2_linear_766_1013" x1="155.721" y1="152.96" x2="195.818" y2="145.079" gradientUnits="userSpaceOnUse">
<stop stop-color="#EA6A61"/>
<stop offset="1" stop-color="#EEA19C"/>
</linearGradient>
<clipPath id="clip0_766_1013">
<path d="M0.5 20C0.5 8.9543 9.45431 0 20.5 0H275.5C286.546 0 295.5 8.9543 295.5 20V166H0.5V20Z" fill="white"/>
</clipPath>
</defs>
</svg>
