<svg width="38" height="18" viewBox="0 0 38 18" fill="none" xmlns="http://www.w3.org/2000/svg">
<path d="M2.34 14H0.44V-9.53674e-07H2.34V14ZM9.54516 14.2C8.57182 14.2 7.71182 13.9867 6.96516 13.56C6.23182 13.1333 5.65849 12.5133 5.24516 11.7C4.83182 10.8867 4.62516 9.90667 4.62516 8.76C4.62516 7.61333 4.82516 6.63333 5.22516 5.82C5.63849 5.00667 6.21849 4.39333 6.96516 3.98C7.71182 3.55333 8.57182 3.34 9.54516 3.34C10.5185 3.34 11.3785 3.55333 12.1252 3.98C12.8718 4.39333 13.4452 5.00667 13.8452 5.82C14.2585 6.63333 14.4652 7.61333 14.4652 8.76C14.4652 9.90667 14.2585 10.8867 13.8452 11.7C13.4318 12.5133 12.8518 13.1333 12.1052 13.56C11.3718 13.9867 10.5185 14.2 9.54516 14.2ZM9.54516 12.46C10.4385 12.46 11.1652 12.14 11.7252 11.5C12.2852 10.86 12.5652 9.94667 12.5652 8.76C12.5652 7.58667 12.2852 6.68 11.7252 6.04C11.1652 5.4 10.4385 5.08 9.54516 5.08C8.65182 5.08 7.92516 5.4 7.36516 6.04C6.80516 6.68 6.52516 7.58667 6.52516 8.76C6.52516 9.94667 6.80516 10.86 7.36516 11.5C7.92516 12.14 8.65182 12.46 9.54516 12.46ZM21.0686 18C19.8553 18 18.8419 17.72 18.0286 17.16C17.2286 16.6 16.6686 15.7933 16.3486 14.74H18.3486C18.5486 15.2333 18.8753 15.6067 19.3286 15.86C19.7953 16.1267 20.3753 16.26 21.0686 16.26C21.9353 16.26 22.6219 16.04 23.1286 15.6C23.6353 15.1733 23.8886 14.5533 23.8886 13.74V12.04H23.7886C23.4686 12.44 23.0353 12.7667 22.4886 13.02C21.9553 13.2733 21.3419 13.4 20.6486 13.4C19.7686 13.4 18.9886 13.2067 18.3086 12.82C17.6286 12.42 17.0953 11.84 16.7086 11.08C16.3353 10.32 16.1486 9.41333 16.1486 8.36C16.1486 7.30667 16.3353 6.40667 16.7086 5.66C17.0953 4.9 17.6286 4.32667 18.3086 3.94C18.9886 3.54 19.7686 3.34 20.6486 3.34C21.3419 3.34 21.9686 3.47333 22.5286 3.74C23.0886 4.00667 23.5419 4.36 23.8886 4.8H23.9886L24.2286 3.54H25.7886V13.74C25.7886 15.0867 25.3686 16.1333 24.5286 16.88C23.6886 17.6267 22.5353 18 21.0686 18ZM20.9686 11.66C21.8486 11.66 22.5553 11.3733 23.0886 10.8C23.6219 10.2133 23.8886 9.4 23.8886 8.36C23.8886 7.33333 23.6219 6.53333 23.0886 5.96C22.5553 5.37333 21.8486 5.08 20.9686 5.08C20.0886 5.08 19.3819 5.37333 18.8486 5.96C18.3153 6.53333 18.0486 7.33333 18.0486 8.36C18.0486 9.4 18.3153 10.2133 18.8486 10.8C19.3819 11.3733 20.0886 11.66 20.9686 11.66ZM32.885 14.2C31.9117 14.2 31.0517 13.9867 30.305 13.56C29.5717 13.1333 28.9983 12.5133 28.585 11.7C28.1717 10.8867 27.965 9.90667 27.965 8.76C27.965 7.61333 28.165 6.63333 28.565 5.82C28.9783 5.00667 29.5583 4.39333 30.305 3.98C31.0517 3.55333 31.9117 3.34 32.885 3.34C33.8583 3.34 34.7183 3.55333 35.465 3.98C36.2117 4.39333 36.785 5.00667 37.185 5.82C37.5983 6.63333 37.805 7.61333 37.805 8.76C37.805 9.90667 37.5983 10.8867 37.185 11.7C36.7717 12.5133 36.1917 13.1333 35.445 13.56C34.7117 13.9867 33.8583 14.2 32.885 14.2ZM32.885 12.46C33.7783 12.46 34.505 12.14 35.065 11.5C35.625 10.86 35.905 9.94667 35.905 8.76C35.905 7.58667 35.625 6.68 35.065 6.04C34.505 5.4 33.7783 5.08 32.885 5.08C31.9917 5.08 31.265 5.4 30.705 6.04C30.145 6.68 29.865 7.58667 29.865 8.76C29.865 9.94667 30.145 10.86 30.705 11.5C31.265 12.14 31.9917 12.46 32.885 12.46Z" fill="#919191"/>
</svg>
