<svg width="296" height="166" viewBox="0 0 296 166" fill="none" xmlns="http://www.w3.org/2000/svg">
<g clip-path="url(#clip0_766_1045)">
<path d="M0.5 20C0.5 8.9543 9.45431 0 20.5 0H275.5C286.546 0 295.5 8.9543 295.5 20V166H0.5V20Z" fill="url(#paint0_linear_766_1045)"/>
<path d="M33.4462 41.6492L30.8813 43.1106L28.433 44.5146L26.5385 37.6376L28.9868 34.8295M26.3053 36.7494L23.4198 26.2906L28.5496 34.1705L26.3053 36.7494ZM22.9826 41.6779L25.9264 38.2967L27.5878 44.2854L25.4892 43.0819L22.9826 41.6779ZM29.5114 34.2278L33.6211 29.5285V40.5031L29.5114 34.2278ZM34.3789 29.5285L38.4885 34.2278L34.3789 40.5031V29.5285ZM38.984 34.8295L41.4323 37.6376L39.5378 44.5146L37.0603 43.1106L34.4955 41.6492L38.984 34.8295ZM42.0444 38.3253L44.9882 41.7065L42.4816 43.1392L40.383 44.3141L42.0444 38.3253ZM45.1922 40.7896L42.2776 37.4657L45.1922 26.8923V40.7896ZM41.6946 36.7494L39.4212 34.1705L44.5801 26.2906L41.6946 36.7494ZM38.8966 33.5687L34.6412 28.6689L44.6384 24.8292L38.8966 33.5687ZM34.1166 28.0671L34 28.1111L33.8834 28.0671L22.0208 23.5111V41.9931L25.1103 43.741L28.1998 45.4889L31.2894 43.741L34 42.1937L39.8001 45.4889L42.8896 43.741L45.9791 41.9931V23.5111L34.1166 28.0671ZM33.3588 28.6689L29.0742 33.5687L23.3615 24.8292L33.3588 28.6689ZM25.6933 37.4371L22.7786 40.7609V26.8637L25.6933 37.4371Z" fill="white"/>
<path d="M33.4462 41.6492L30.8813 43.1106L28.433 44.5146L26.5385 37.6376L28.9868 34.8295M26.3053 36.7494L23.4198 26.2906L28.5496 34.1705L26.3053 36.7494ZM22.9826 41.6779L25.9264 38.2967L27.5878 44.2854L25.4892 43.0819L22.9826 41.6779ZM29.5114 34.2278L33.6211 29.5285V40.5031L29.5114 34.2278ZM34.3789 29.5285L38.4885 34.2278L34.3789 40.5031V29.5285ZM38.984 34.8295L41.4323 37.6376L39.5378 44.5146L37.0603 43.1106L34.4955 41.6492L38.984 34.8295ZM42.0444 38.3253L44.9882 41.7065L42.4816 43.1392L40.383 44.3141L42.0444 38.3253ZM45.1922 40.7896L42.2776 37.4657L45.1922 26.8923V40.7896ZM41.6946 36.7494L39.4212 34.1705L44.5801 26.2906L41.6946 36.7494ZM38.8966 33.5687L34.6412 28.6689L44.6384 24.8292L38.8966 33.5687ZM34.1166 28.0671L34 28.1111L33.8834 28.0671L22.0208 23.5111V41.9931L25.1103 43.741L28.1998 45.4889L31.2894 43.741L34 42.1937L39.8001 45.4889L42.8896 43.741L45.9791 41.9931V23.5111L34.1166 28.0671ZM33.3588 28.6689L29.0742 33.5687L23.3615 24.8292L33.3588 28.6689ZM25.6933 37.4371L22.7786 40.7609V26.8637L25.6933 37.4371Z" stroke="white"/>
<ellipse cx="289.12" cy="82.3797" rx="56" ry="56" transform="rotate(-146.448 289.12 82.3797)" fill="url(#paint1_linear_766_1045)"/>
<path d="M295.665 111.623C292.119 111.384 289.428 108.631 289.183 105.28C289.183 104.682 289.061 104.084 289.061 103.485C288.939 104.084 288.939 104.682 288.939 105.28C288.694 108.751 285.881 111.384 282.457 111.623C281.845 111.623 281.234 111.743 280.622 111.743C281.234 111.862 281.845 111.862 282.457 111.862C286.004 112.102 288.694 114.854 288.939 118.205C288.939 118.803 289.061 119.402 289.061 120C289.061 119.402 289.061 118.803 289.183 118.205C289.428 114.734 292.241 112.102 295.665 111.862C296.277 111.862 296.888 111.743 297.5 111.743C296.888 111.623 296.277 111.623 295.665 111.623Z" fill="white"/>
<path d="M295.665 83.3803C292.119 83.141 289.428 80.3885 289.183 77.0377C289.183 76.4393 289.061 75.841 289.061 75.2426C288.939 75.841 288.939 76.4393 288.939 77.0377C288.694 80.5082 285.881 83.141 282.457 83.3803C281.845 83.3803 281.234 83.5 280.622 83.5C281.234 83.6197 281.845 83.6197 282.457 83.6197C286.004 83.859 288.694 86.6115 288.939 89.9623C288.939 90.5607 289.061 91.159 289.061 91.7574C289.061 91.2787 289.061 90.6803 289.183 90.082C289.428 86.6115 292.241 83.9787 295.665 83.7393C296.277 83.7393 296.888 83.6197 297.5 83.6197C296.888 83.5 296.277 83.3803 295.665 83.3803Z" fill="white"/>
<path d="M295.665 55.1377C292.119 54.8984 289.428 52.2656 289.183 48.7951C289.061 48.1967 289.061 47.5984 288.939 47C288.939 47.5984 288.939 48.1967 288.817 48.7951C288.572 52.2656 285.881 54.8984 282.335 55.1377C281.723 55.2574 281.112 55.2574 280.5 55.2574C281.112 55.377 281.723 55.377 282.335 55.4967C285.881 55.7361 288.572 58.4885 288.817 61.8393C288.817 62.4377 288.939 63.0361 288.939 63.6344C289.061 63.0361 289.061 62.4377 289.061 61.8393C289.306 58.3689 292.119 55.7361 295.543 55.4967C296.155 55.4967 296.766 55.377 297.378 55.377C296.888 55.2574 296.277 55.2574 295.665 55.1377Z" fill="white"/>
<path d="M65.3644 307.7V107C65.3644 67.2 93.9759 35 129.34 35C164.705 35 193.316 67.2 193.316 107V307.7" stroke="white" stroke-miterlimit="10"/>
<path d="M127.474 86L129.163 104.3L141.869 92.7L131.562 107L147.822 108.9L131.562 110.8L141.869 125.1L129.163 113.5L127.474 131.8L125.786 113.5L113.08 125.1L123.387 110.8L107.127 108.9L123.387 107L113.08 92.7L125.786 104.3L127.474 86Z" fill="url(#paint2_linear_766_1045)"/>
</g>
<defs>
<linearGradient id="paint0_linear_766_1045" x1="148" y1="166" x2="144.866" y2="0.0591806" gradientUnits="userSpaceOnUse">
<stop stop-color="#B3B2E1"/>
<stop offset="1" stop-color="#D9D8F1"/>
</linearGradient>
<linearGradient id="paint1_linear_766_1045" x1="238.098" y1="126.554" x2="351.633" y2="101.198" gradientUnits="userSpaceOnUse">
<stop stop-color="#6865EA"/>
<stop offset="1" stop-color="#B1B0E1"/>
</linearGradient>
<linearGradient id="paint2_linear_766_1045" x1="108.935" y1="126.964" x2="150.606" y2="118.695" gradientUnits="userSpaceOnUse">
<stop stop-color="#6865EA"/>
<stop offset="1" stop-color="#B1B0E1"/>
</linearGradient>
<clipPath id="clip0_766_1045">
<path d="M0.5 20C0.5 8.9543 9.45431 0 20.5 0H275.5C286.546 0 295.5 8.9543 295.5 20V166H0.5V20Z" fill="white"/>
</clipPath>
</defs>
</svg>
